<svg width="580" height="400" xmlns="http://www.w3.org/2000/svg">
 <!-- Created with Method Draw - http://github.com/duopixel/Method-Draw/ -->

 <g>
  <title>background</title>
 </g>
 <g>
  <title>Layer 1</title>
  <ellipse ry="195" rx="195" id="svg_3" cy="200.9375" cx="288" stroke-width="5" stroke="#e5e5e5" fill="#191919"/>
  <path stroke="#000000" id="svg_4" d="m386.685034,228.543396c7.963646,-1.978933 15.579978,-4.260383 22.289434,-6.308359l-201.038804,-0.93973l-27.575593,8.09286l-87.360082,-0.695079c10.946324,-3.68458 22.937622,-8.012968 31.82811,-11.264016l-31.625102,-10.929342l93.21125,0l18.965535,6.82873l205.255695,0l-25.46038,-6.813447c7.857416,-2.147176 19.485947,-5.012625 25.794015,-6.515022l69.030911,17.365309l-69.187922,17.634693l-24.127094,-6.456602l0.000026,0.000003z" stroke-width="0" fill="#cccccc"/>
  <path stroke="#000000" transform="rotate(-130 312.857421875,176.9822998046875) " id="svg_5" d="m409.408667,188.025696c7.674801,-1.97894 15.014891,-4.26039 21.480984,-6.30836l-193.747008,-0.93973l-26.575414,8.09286l-84.191484,-0.69508c10.549296,-3.68458 22.10566,-8.01297 30.673688,-11.26402l-30.478045,-10.92934l89.830431,0l18.277641,6.82873l197.81096,0l-24.536921,-6.81345c7.572427,-2.14717 18.779181,-5.01262 24.858454,-6.51502l66.52712,17.36531l-66.678438,17.6347l-23.251986,-6.45661l0.000019,0.00001z" stroke-width="0" fill="#e5e5e5"/>
  <path stroke="#000000" transform="rotate(-50 261.98913574218756,179.21549987792974) " id="svg_6" d="m358.998171,190.258907c7.711191,-1.97894 15.086083,-4.26039 21.582836,-6.30836l-194.665653,-0.93973l-26.701421,8.09286l-84.590676,-0.69508c10.599315,-3.68458 22.210473,-8.01297 30.819127,-11.26402l-30.622556,-10.92934l90.256359,0l18.364304,6.82873l198.748874,0l-24.653262,-6.81345c7.608331,-2.14717 18.868222,-5.01262 24.976319,-6.51502l66.842556,17.36531l-66.994591,17.6347l-23.362235,-6.45661l0.000019,0.00001z" stroke-width="0" fill="#e5e5e5"/>
 </g>
 <g>
  <title>background</title>
  <rect fill="none" id="canvas_background" height="402" width="582" y="-1" x="-1"/>
 </g>
</svg>